# xmcd
#
# Track frame offsets:
#	150
#	16284
#	32728
#	47131
#	62192
#	79096
#	91458
#	107066
#	123489
#	139553
#	153395
#	199228
#	213631
#	226031
#	242078
#
# Disc length: 3404 seconds
# Revision: 0
# Processed by: cddbd v1.5.2PL0 Copyright (c) Steve Scherf et al.
# Submitted via: dBpowerAMP V12.0
#
DISCID=ca0d4a0f
DTITLE=Daniel O'Donnell - Classic Collection
DYEAR=2010
DGENRE=Celtic
TTITLE0=Donegal Shore
TTITLE1=Galway Bay
TTITLE2=40 Shades of Green
TTITLE3=My Side of the Road
TTITLE4=5000 Miles from Sligo
TTITLE5=The Old Rustic Bridge
TTITLE6=The Old Bog Road
TTITLE7=Slievenamon
TTITLE8=Noreen Bawn
TTITLE9=Ballyhoe
TTITLE10=Mary from Dunglow
TTITLE11=Mountains of Mourne
TTITLE12=Star of the County Down
TTITLE13=My Lagan Love
TTITLE14=Kerry Dances
EXTD=
EXTT0=
EXTT1=
EXTT2=
EXTT3=
EXTT4=
EXTT5=
EXTT6=
EXTT7=
EXTT8=
EXTT9=
EXTT10=
EXTT11=
EXTT12=
EXTT13=
EXTT14=
PLAYORDER=
